<svg xmlns="http://www.w3.org/2000/svg" viewBox="0 0 512 512" width="512" height="512" shape-rendering="crispEdges">
  {/* Nền Thẻ Neo-Brutalism Bo Góc */}
  <rect x="16" y="16" width="480" height="480" rx="64" fill="#fbbf24" stroke="#1f2937" stroke-width="24" />
  
  {/* Khung Viền Trong Màu Hồng Cute */}
  <rect x="44" y="44" width="424" height="424" rx="48" fill="#fff5f6" stroke="#1f2937" stroke-width="16" />

  {/* Ghế Sofa Pixel Art 2D (Chủ Đề Thiết Kế Nội Thất) */}
  <rect x="120" y="240" width="272" height="110" rx="16" fill="#f43f5e" stroke="#1f2937" stroke-width="16" />
  <rect x="96" y="260" width="56" height="90" rx="12" fill="#e11d48" stroke="#1f2937" stroke-width="12" />
  <rect x="360" y="260" width="56" height="90" rx="12" fill="#e11d48" stroke="#1f2937" stroke-width="12" />
  <rect x="140" y="270" width="108" height="60" rx="8" fill="#fb7185" />
  <rect x="264" y="270" width="108" height="60" rx="8" fill="#fb7185" />
  {/* Chân Ghế Gỗ */}
  <rect x="136" y="350" width="28" height="48" rx="6" fill="#78350f" stroke="#1f2937" stroke-width="10" />
  <rect x="348" y="350" width="28" height="48" rx="6" fill="#78350f" stroke="#1f2937" stroke-width="10" />

  {/* Quyển Sách HSK Tiếng Trung Nổi */}
  <rect x="196" y="120" width="120" height="100" rx="12" fill="#3b82f6" stroke="#1f2937" stroke-width="14" />
  <rect x="206" y="130" width="100" height="80" rx="6" fill="#60a5fa" />
  {/* Chữ HSK Pixel Trên Sách */}
  <path d="M220 150 h12 v40 h-12 v-16 h-16 v16 h-12 v-40 h12 v14 h16 z" fill="#ffffff" />
  
  {/* Trái Tim Tình Yêu Vy Của Khang Nổi Phía Trên */}
  <path d="M256 86 C240 60, 200 60, 200 90 C200 115, 256 145, 256 145 C256 145, 312 115, 312 90 C312 60, 272 60, 256 86 Z" fill="#f43f5e" stroke="#1f2937" stroke-width="10" />

  {/* Huy Hiệu Ngôi Sao Lấp Lánh */}
  <polygon points="410,100 422,128 450,132 428,150 434,178 410,162 386,178 392,150 370,132 398,128" fill="#facc15" stroke="#1f2937" stroke-width="10" />
</svg>
